<?xml version="1.0" standalone="no"?>
<!DOCTYPE svg PUBLIC "-//W3C//DTD SVG 20010904//EN"
 "http://www.w3.org/TR/2001/REC-SVG-20010904/DTD/svg10.dtd">
<svg version="1.0" xmlns="http://www.w3.org/2000/svg"
 width="748.000000pt" height="748.000000pt" viewBox="0 0 748.000000 748.000000"
 preserveAspectRatio="xMidYMid meet">
<metadata>
Created by potrace 1.14, written by Peter Selinger 2001-2017
</metadata>
<g transform="translate(0.000000,748.000000) scale(0.100000,-0.100000)"
fill="#000000" stroke="none">
<path d="M1960 7238 c-15 -24 -17 -29 -19 -54 0 -9 -6 -12 -13 -8 -7 4 -8 3
-4 -4 4 -7 4 -18 -1 -24 -4 -7 -8 -15 -9 -18 0 -3 -4 -12 -7 -20 -10 -23 -56
-223 -62 -269 -3 -23 -9 -50 -14 -59 -13 -24 -5 -447 8 -447 1 0 4 -15 7 -34
2 -19 9 -53 16 -75 6 -23 12 -52 14 -66 2 -14 8 -26 14 -28 5 -2 7 -8 4 -13
-3 -6 0 -16 6 -24 7 -8 9 -15 5 -15 -5 0 -1 -8 7 -17 9 -10 19 -33 23 -50 3
-18 11 -33 16 -33 6 0 8 -4 5 -9 -3 -5 1 -14 9 -21 8 -7 12 -16 9 -21 -3 -5 0
-9 5 -9 6 0 10 -3 9 -7 -2 -8 21 -54 31 -63 3 -3 15 -22 26 -42 11 -21 23 -38
28 -38 4 0 5 -4 2 -10 -3 -5 -1 -10 4 -10 6 0 11 -7 11 -15 0 -7 8 -19 18 -24
9 -6 13 -11 8 -11 -5 0 4 -12 20 -26 16 -15 22 -23 14 -19 -8 3 -7 0 4 -9 18
-15 17 -17 -17 -64 -48 -68 -70 -111 -63 -128 3 -9 1 -12 -4 -9 -6 3 -11 -3
-11 -14 -1 -12 -2 -27 -3 -33 -1 -7 -3 -15 -6 -18 -13 -11 -30 -91 -30 -137 0
-64 -10 -114 -21 -107 -5 3 -6 -2 -3 -10 4 -10 1 -16 -7 -16 -10 0 -11 -2 -2
-8 8 -5 8 -16 -2 -44 -9 -26 -9 -36 -1 -31 6 4 5 -1 -3 -10 -7 -9 -11 -26 -8
-37 3 -11 1 -20 -5 -20 -5 0 -7 -4 -3 -9 3 -5 1 -12 -4 -15 -5 -4 -9 -33 -8
-65 1 -33 -2 -57 -6 -54 -5 3 -8 -1 -6 -8 3 -29 -1 -40 -13 -33 -9 5 -9 2 1
-9 7 -9 9 -17 4 -17 -6 0 -8 -11 -6 -24 3 -13 0 -34 -7 -46 -10 -18 -10 -21 2
-14 10 6 11 5 1 -7 -6 -8 -13 -40 -14 -72 -1 -31 -6 -57 -10 -57 -4 0 -7 -23
-6 -50 0 -28 -2 -53 -6 -56 -3 -3 -3 -17 -1 -31 3 -13 1 -22 -4 -20 -4 3 -8
-2 -8 -11 -1 -9 -3 -47 -4 -84 -2 -38 -7 -68 -12 -68 -4 0 -8 -5 -8 -11 0 -5
6 -7 13 -4 6 4 5 1 -3 -7 -17 -15 -20 -69 -5 -80 6 -5 5 -8 -2 -8 -7 0 -10 -7
-7 -15 4 -8 0 -23 -7 -32 -12 -14 -12 -16 1 -8 12 7 13 6 3 -6 -6 -8 -13 -40
-14 -71 -1 -32 -6 -55 -10 -52 -4 2 -10 0 -14 -6 -3 -5 -11 -10 -16 -10 -6 0
-7 5 -4 11 4 6 -2 5 -13 -2 -12 -7 -18 -18 -14 -24 3 -5 -1 -4 -10 3 -11 9
-17 10 -20 2 -4 -14 -68 -20 -68 -7 0 5 -6 4 -14 -2 -10 -9 -16 -9 -21 -1 -5
8 -11 8 -19 1 -9 -7 -16 -7 -24 1 -9 9 -12 9 -12 0 0 -7 -7 -12 -16 -12 -15 0
-15 -2 -1 -24 15 -23 15 -24 -6 -19 -22 5 -22 5 -2 -10 11 -8 23 -13 26 -11 4
2 5 -6 2 -18 -4 -19 -3 -20 6 -8 9 12 11 12 11 1 0 -8 8 -20 18 -27 16 -13 16
-14 -3 -8 -15 4 -14 2 4 -9 18 -11 20 -16 10 -20 -10 -4 -10 -6 3 -6 9 -1 20
-6 24 -13 5 -7 3 -8 -6 -3 -9 6 -11 4 -6 -4 5 -7 14 -10 20 -8 7 3 13 -1 13
-9 0 -7 -4 -11 -9 -8 -4 3 -8 0 -8 -5 0 -6 7 -11 16 -11 9 0 14 -6 11 -13 -5
-14 17 -39 27 -30 12 12 6 -13 -6 -26 -11 -11 -9 -12 11 -6 16 5 21 4 17 -4
-4 -6 0 -25 9 -42 9 -17 12 -28 6 -25 -6 4 -11 2 -11 -3 0 -6 7 -11 15 -11 13
0 14 -3 3 -22 -14 -24 -15 -30 -17 -66 0 -13 -5 -20 -11 -17 -5 3 -10 1 -10
-4 0 -6 6 -11 13 -11 9 0 8 -3 -2 -9 -8 -5 -10 -14 -6 -21 6 -9 4 -11 -5 -5
-10 6 -12 4 -7 -9 4 -10 1 -19 -8 -22 -8 -4 -13 -10 -10 -14 3 -5 -3 -7 -12
-6 -10 2 -18 9 -18 17 0 8 -8 13 -18 11 -9 -2 -17 2 -17 9 0 7 -9 9 -21 6 -12
-3 -22 0 -25 8 -4 8 -18 12 -41 10 -20 -1 -37 3 -39 10 -5 12 -34 17 -34 5 0
-4 -11 -5 -25 -2 -15 2 -25 0 -25 -7 0 -6 -5 -11 -11 -11 -5 0 -7 4 -4 10 3 6
-1 7 -10 4 -9 -4 -14 -13 -10 -22 5 -12 3 -13 -10 -2 -9 7 -15 9 -13 4 2 -5 0
-9 -3 -9 -15 0 -37 -28 -32 -41 3 -9 -2 -14 -13 -15 -11 0 -14 -3 -6 -6 6 -2
9 -10 5 -16 -5 -7 -10 -49 -13 -95 -4 -68 -3 -82 10 -82 13 0 13 -1 0 -10 -13
-8 -13 -10 2 -10 11 0 15 -5 12 -15 -5 -11 -2 -13 12 -8 11 4 15 3 11 -4 -12
-18 60 -34 99 -22 11 4 28 3 37 -2 9 -6 17 -6 17 -2 0 11 63 11 71 0 3 -4 -20
-34 -51 -67 -91 -94 -115 -135 -115 -194 0 -65 33 -116 73 -116 32 0 97 51
162 126 25 29 46 52 47 51 0 -1 -7 -51 -18 -112 -35 -207 -44 -347 -31 -531
13 -184 30 -274 57 -304 42 -46 135 -8 120 48 -4 15 -9 90 -12 167 -4 110 0
170 16 280 23 157 72 438 78 444 2 3 9 -3 16 -13 11 -15 11 -31 -2 -90 -8 -39
-17 -73 -20 -76 -13 -11 -6 -46 11 -63 10 -9 18 -14 18 -11 0 4 7 0 16 -7 9
-7 31 -13 49 -14 19 0 33 -4 33 -9 0 -5 5 -12 11 -15 6 -4 11 -21 13 -39 1
-18 5 -32 8 -32 4 0 7 -6 8 -12 0 -7 3 -24 7 -38 14 -51 22 -100 17 -100 -2 0
0 -6 6 -13 6 -6 12 -33 15 -59 3 -25 7 -50 10 -55 3 -5 7 -35 8 -67 1 -31 5
-59 9 -61 3 -2 7 -27 8 -57 4 -85 7 -103 14 -108 3 -3 7 -28 9 -55 1 -28 6
-54 10 -60 11 -15 14 -68 6 -82 -5 -9 -3 -11 6 -7 13 5 15 0 19 -51 1 -14 6
-25 10 -25 4 0 8 -9 8 -20 0 -11 5 -20 12 -20 6 0 8 -3 5 -7 -4 -3 -2 -12 4
-20 6 -7 8 -13 5 -13 -4 0 0 -7 8 -16 9 -8 14 -20 11 -25 -4 -5 -1 -9 5 -9 6
0 9 -4 5 -9 -3 -5 -1 -12 5 -16 9 -6 42 -70 44 -87 1 -4 9 -16 18 -28 10 -11
16 -20 13 -20 -2 0 7 -12 20 -26 14 -15 25 -33 25 -40 0 -8 5 -14 10 -14 6 0
10 -5 10 -11 0 -7 9 -20 21 -30 11 -10 18 -22 15 -27 -3 -6 2 -16 12 -23 16
-13 16 -13 2 6 -14 19 -14 19 3 6 9 -7 17 -25 18 -40 0 -23 1 -24 9 -6 8 18 9
18 9 2 1 -12 5 -16 14 -11 9 6 9 5 0 -7 -11 -13 -9 -15 9 -15 11 1 23 -5 25
-11 3 -7 0 -13 -7 -13 -6 0 -8 5 -4 12 4 7 3 8 -5 4 -17 -11 -2 -28 19 -21 10
3 22 0 26 -6 4 -8 3 -9 -4 -5 -8 5 -10 2 -6 -8 3 -9 10 -13 15 -10 5 3 9 -1 9
-9 0 -7 20 -24 45 -36 25 -12 45 -25 45 -27 0 -3 -6 -2 -12 2 -10 5 -10 3 0
-7 7 -8 18 -14 25 -14 7 0 12 -5 12 -12 0 -6 4 -15 9 -20 5 -5 6 -3 2 5 -4 6
-2 12 3 12 6 0 11 -4 11 -9 0 -5 9 -13 21 -16 11 -4 18 -12 16 -19 -3 -7 1
-13 9 -13 7 0 11 5 8 11 -3 6 1 4 8 -6 8 -9 23 -18 33 -20 21 -3 46 -28 39
-39 -2 -4 5 -5 16 -2 12 3 20 0 20 -7 0 -7 7 -10 15 -6 9 3 15 0 15 -8 0 -18
25 -27 38 -14 6 6 12 6 17 -3 5 -8 4 -10 -3 -5 -23 14 -11 -2 13 -18 23 -15
24 -15 19 1 -4 14 -2 13 8 -2 7 -12 23 -20 35 -19 13 1 20 -3 16 -9 -4 -6 4
-8 21 -5 19 4 29 1 33 -9 3 -8 14 -13 24 -10 13 4 19 0 20 -11 0 -11 2 -13 6
-4 4 10 8 10 19 1 7 -6 21 -9 29 -5 9 3 13 2 10 -4 -3 -6 2 -10 12 -11 31 -1
66 -9 77 -17 10 -8 43 -8 71 -1 6 1 21 -2 35 -8 14 -5 49 -11 79 -12 30 -1 58
-4 63 -7 4 -3 8 0 8 7 0 9 3 9 14 0 8 -7 17 -8 19 -4 3 5 33 6 66 3 34 -3 61
-2 61 3 0 5 6 4 13 -2 8 -6 16 -8 20 -5 7 7 265 7 277 -1 6 -4 7 1 3 11 -4 12
-3 15 6 10 6 -4 18 -2 26 4 11 9 15 9 15 1 0 -9 5 -9 20 -1 15 8 20 8 20 -1 0
-8 4 -8 13 -2 6 6 20 9 29 8 9 -2 15 2 12 9 -3 7 4 12 16 12 11 0 20 -3 20 -6
0 -4 7 -7 15 -7 8 0 15 6 15 13 0 7 5 16 12 20 6 4 8 3 4 -4 -11 -19 18 -20
42 -1 13 10 30 15 38 12 8 -3 17 2 20 12 5 13 9 14 15 3 7 -10 9 -10 9 0 0 6
10 12 21 12 19 0 20 2 8 17 -13 15 -12 15 9 4 13 -7 22 -8 22 -2 0 5 9 8 20 6
13 -3 18 0 14 7 -5 8 -1 9 10 5 10 -4 15 -3 11 3 -3 6 -2 10 4 10 5 0 17 3 27
7 13 5 15 3 9 -7 -5 -9 -4 -11 3 -6 7 4 12 14 12 22 0 8 5 12 10 9 6 -3 17 1
26 9 18 18 39 21 28 4 -4 -7 -3 -8 4 -4 7 4 12 14 12 21 0 17 30 35 58 35 11
0 26 8 33 17 8 10 9 14 2 10 -6 -4 -14 -4 -17 1 -2 4 4 8 15 9 10 1 30 14 44
29 14 15 25 21 25 15 0 -7 5 -9 10 -6 6 4 8 10 6 14 -3 4 18 31 46 61 28 30
45 47 38 38 -9 -13 -9 -18 -1 -18 14 0 31 41 23 55 -3 6 2 4 12 -4 15 -12 17
-12 14 0 -2 8 3 13 11 11 8 -2 11 3 8 12 -7 18 58 70 75 60 6 -4 8 -3 5 3 -4
6 0 16 9 23 8 7 12 20 9 28 -3 9 0 12 8 9 10 -4 13 2 11 19 -2 19 1 23 10 15
17 -14 29 -1 15 16 -9 10 -6 13 12 13 19 0 21 2 9 10 -12 8 -12 10 2 15 10 4
15 15 13 27 -4 17 -2 18 12 6 15 -12 15 -11 4 11 -8 15 -9 21 -2 17 6 -4 11
-2 11 4 0 6 5 8 12 4 8 -5 9 -2 5 9 -3 10 -2 17 3 17 5 0 7 7 4 15 -4 11 -2
13 9 9 16 -6 18 11 4 33 -4 6 -2 15 4 19 8 4 9 3 5 -4 -4 -7 -3 -12 2 -12 6 0
13 11 16 25 4 17 11 23 19 18 7 -4 5 2 -3 12 -12 15 -12 17 -1 10 11 -6 13 -4
8 8 -4 10 0 20 11 26 9 6 12 11 5 11 -9 0 -8 7 2 27 8 15 12 30 9 35 -3 4 -1
8 5 8 5 0 8 9 6 19 -2 11 3 22 13 26 14 5 14 7 2 15 -10 7 -11 10 -2 10 7 0
12 13 12 29 0 17 4 32 8 35 5 3 10 31 11 63 1 31 4 59 6 62 3 2 0 10 -7 18 -9
11 -7 12 7 6 14 -5 17 -3 12 10 -4 10 -1 17 6 17 8 0 6 4 -3 10 -13 9 -13 10
0 10 12 0 12 2 1 9 -9 6 -10 11 -2 15 7 4 7 15 1 31 -7 19 -6 27 8 34 12 7 13
10 3 11 -10 0 -10 4 -3 13 13 15 19 68 9 83 -4 7 1 15 10 18 15 6 15 8 3 16
-8 6 -10 10 -5 10 6 0 12 17 14 38 4 52 6 65 14 82 4 8 8 30 10 48 2 19 10 37
17 42 10 6 10 9 0 15 -10 6 -8 12 6 23 13 10 15 16 7 19 -7 3 -13 9 -13 14 0
6 5 7 10 4 9 -5 15 15 11 38 0 4 4 7 10 7 5 0 7 5 3 12 -4 7 -3 8 5 4 6 -4 8
-13 4 -19 -3 -7 3 -3 15 7 12 11 22 15 22 11 0 -5 6 -1 14 10 8 12 20 16 35
12 11 -3 19 -1 16 3 -3 5 -2 10 2 13 5 2 2 2 -5 0 -7 -1 -10 2 -7 7 7 12 64
10 71 -2 3 -4 0 -8 -7 -8 -7 0 -6 -8 5 -25 12 -17 13 -25 4 -25 -9 0 -9 -3 0
-12 7 -7 12 -36 12 -65 0 -29 4 -53 8 -53 10 0 9 10 11 -253 2 -121 0 -221 -3
-224 -2 -3 7 -16 22 -30 15 -14 19 -20 9 -13 -9 7 -20 10 -24 6 -3 -3 -1 -6 6
-6 7 0 10 -4 7 -8 -3 -5 17 -8 44 -6 36 2 48 -1 43 -9 -3 -7 -2 -8 3 -4 9 9
10 13 13 43 0 8 4 13 9 10 4 -2 12 7 19 20 8 18 8 24 0 24 -9 0 -9 2 0 8 6 4
13 33 14 65 1 32 7 57 13 57 6 0 4 5 -4 10 -13 9 -13 12 0 23 13 10 15 45 12
220 -1 132 -6 206 -12 202 -14 -9 -12 9 2 23 9 9 9 12 0 12 -8 0 -12 17 -12
48 0 26 -6 54 -12 61 -11 11 -10 12 0 6 11 -6 12 -3 3 13 -6 11 -11 35 -11 52
0 18 -4 29 -10 25 -14 -9 -13 8 2 23 7 7 8 12 2 12 -5 0 -11 15 -12 33 l-2 32
20 -33 c11 -18 20 -35 20 -37 0 -10 88 -99 123 -125 47 -36 82 -29 109 20 42
80 22 130 -100 260 -34 36 -62 68 -62 71 0 3 7 6 15 6 8 0 15 -3 15 -7 0 -3 8
-6 18 -7 9 -1 34 -3 54 -5 20 -2 35 -1 32 4 -3 4 6 4 20 -2 18 -7 26 -6 26 1
0 8 4 8 14 0 11 -10 17 -8 25 6 6 10 11 13 11 6 0 -21 30 -2 36 23 3 13 12 24
19 24 7 0 15 7 19 15 3 8 0 15 -7 15 -8 0 -8 3 2 9 8 5 11 16 8 24 -3 9 -1 18
6 21 9 3 9 5 0 5 -8 1 -9 10 -3 31 7 25 6 30 -8 30 -15 0 -15 2 -2 10 8 5 10
10 4 10 -6 0 -11 7 -12 15 -1 8 -3 22 -4 30 -1 8 -5 12 -9 9 -4 -2 -22 13 -39
35 -21 25 -38 37 -47 34 -8 -3 -19 0 -24 8 -7 11 -9 11 -9 1 0 -8 -5 -10 -12
-6 -16 10 -48 13 -48 4 0 -8 -44 -5 -59 5 -6 3 -11 -1 -11 -10 0 -9 -5 -13
-10 -10 -6 4 -18 1 -27 -7 -14 -11 -16 -11 -9 2 6 12 4 11 -6 -1 -7 -9 -19
-14 -27 -11 -9 3 -11 0 -7 -7 5 -8 0 -10 -18 -7 -15 3 -24 1 -21 -5 4 -5 1 -9
-5 -9 -6 0 -8 -6 -4 -12 5 -9 4 -10 -4 -3 -6 6 -13 26 -17 45 -11 61 -12 65
-18 80 -6 15 -17 62 -20 90 -1 8 -9 21 -17 28 -8 7 -10 11 -5 10 6 -2 11 0 13
5 1 4 11 16 23 28 11 11 18 27 15 36 -4 10 -2 13 8 10 11 -4 13 -1 9 10 -4 10
-2 14 5 9 6 -3 13 -2 17 4 3 5 1 10 -4 10 -6 0 -11 5 -11 11 0 5 3 8 8 6 4 -3
13 1 20 9 8 9 9 14 2 14 -6 0 -8 5 -5 10 4 6 10 8 15 5 4 -3 10 2 14 10 3 8 1
15 -4 15 -6 0 -10 4 -10 9 0 5 10 7 23 5 12 -2 17 -2 10 2 -10 4 -10 8 0 19 7
7 16 10 21 7 5 -3 6 0 3 5 -4 6 -1 16 6 21 15 13 23 97 9 88 -6 -3 -12 0 -15
8 -6 16 -35 15 -45 -1 -4 -5 -15 -9 -24 -7 -10 1 -18 -2 -18 -7 0 -5 -10 -4
-22 3 -13 6 -33 11 -45 9 -13 -1 -23 2 -23 7 0 6 -7 13 -16 16 -8 3 -12 2 -9
-4 3 -6 2 -10 -3 -10 -14 0 -26 49 -35 137 -2 12 -6 25 -10 29 -4 4 -7 27 -7
51 0 33 -3 42 -12 37 -10 -6 -10 -4 0 8 10 13 10 17 -4 22 -13 5 -14 9 -5 20
9 10 9 16 1 21 -8 5 -8 10 0 20 7 8 7 15 1 19 -5 3 -7 15 -4 26 3 11 1 20 -4
20 -6 0 -11 33 -12 72 -1 40 -7 75 -13 79 -7 4 -5 8 3 12 10 4 10 6 2 6 -9 1
-13 21 -13 64 0 36 -5 68 -12 75 -9 9 -9 12 2 12 11 0 11 3 2 12 -7 7 -12 31
-12 55 0 24 -3 43 -7 43 -5 0 -9 24 -11 52 -2 29 -8 56 -14 59 -7 4 -7 9 1 13
6 4 11 12 11 17 0 6 -4 8 -9 5 -5 -3 -11 8 -13 25 -3 16 -1 32 4 35 5 3 2 14
-6 23 -13 14 -13 20 -3 31 10 10 9 11 -2 5 -11 -6 -13 -4 -8 8 3 9 1 18 -6 21
-8 3 -7 5 2 5 11 1 10 6 -5 23 -10 12 -13 18 -6 14 6 -4 12 -2 12 3 0 6 -4 11
-10 11 -5 0 -10 13 -10 29 0 17 -5 33 -11 37 -8 4 -7 9 2 15 10 6 11 9 2 9 -8
0 -13 13 -13 30 0 17 -5 30 -11 30 -8 0 -8 5 1 15 9 10 9 15 1 15 -6 0 -11 11
-11 25 0 14 -6 25 -12 25 -9 0 -8 4 2 10 10 6 11 10 3 10 -8 0 -13 14 -13 35
0 19 -5 35 -11 35 -6 0 -9 9 -6 19 3 12 -1 22 -10 25 -8 3 -12 10 -8 16 3 5
-1 24 -10 41 -9 17 -12 28 -6 25 6 -4 11 -2 11 3 0 6 -6 11 -14 11 -8 0 -13 8
-12 18 2 9 -2 20 -8 24 -8 5 -7 8 2 8 10 0 10 3 0 14 -7 8 -17 12 -21 9 -5 -3
-4 4 2 15 8 15 8 23 -1 28 -7 5 -8 3 -3 -6 5 -9 4 -11 -4 -6 -6 4 -8 12 -5 18
4 6 0 14 -7 19 -11 7 -11 9 -1 9 8 0 6 8 -7 22 -15 15 -18 25 -11 33 8 9 4 14
-12 19 -19 5 -20 8 -8 16 10 6 11 10 3 10 -7 0 -13 7 -13 15 0 8 -4 15 -10 15
-5 0 -10 7 -10 15 0 8 -6 15 -12 15 -10 0 -9 3 1 9 9 6 10 11 2 15 -6 4 -8 13
-4 19 4 7 -1 5 -12 -3 -17 -14 -18 -13 -13 16 3 22 0 30 -7 28 -16 -7 -39 22
-25 31 6 3 8 11 4 16 -3 5 -9 7 -14 4 -4 -3 -13 2 -20 10 -11 13 -10 15 6 10
13 -4 12 -2 -3 6 -13 7 -23 18 -23 26 0 9 -5 11 -12 7 -8 -5 -7 0 2 11 12 15
12 17 1 10 -11 -6 -13 -4 -8 9 4 10 3 15 -3 11 -6 -3 -10 -2 -10 4 0 6 -7 8
-15 5 -11 -5 -13 -2 -9 10 3 9 1 16 -6 16 -7 0 -9 9 -6 23 3 12 3 16 0 9 -4
-9 -14 -1 -31 25 -13 21 -22 30 -19 20 4 -12 2 -17 -6 -14 -7 2 -12 12 -10 21
2 9 -3 15 -10 14 -7 -2 -12 3 -10 10 1 6 -1 11 -5 11 -20 -3 -34 2 -28 11 3 6
-1 10 -10 10 -9 0 -14 4 -10 9 3 5 -4 12 -14 16 -12 4 -18 12 -14 21 4 10 0
12 -11 8 -9 -3 -16 -1 -16 6 0 6 -5 8 -12 4 -8 -5 -7 0 2 11 9 11 10 16 3 11
-8 -4 -13 -2 -13 4 0 7 -6 10 -12 7 -19 -6 -48 11 -48 29 0 8 -4 12 -10 9 -5
-3 -10 -2 -10 2 0 5 -10 14 -22 22 l-23 14 20 -23 20 -24 -27 20 c-14 10 -25
23 -25 28 1 5 -4 11 -12 14 -9 3 -11 0 -7 -9 4 -8 -1 -3 -12 11 -12 14 -31 24
-47 25 -15 0 -33 8 -40 18 -10 13 -14 15 -18 5 -3 -8 -6 -6 -6 5 -1 10 -5 15
-11 12 -5 -3 -10 0 -11 7 0 7 -4 4 -9 -7 -8 -18 -9 -18 -9 -2 -1 10 -5 16 -10
13 -5 -3 -12 1 -15 10 -5 13 -9 14 -20 4 -12 -9 -17 -7 -25 9 -7 12 -17 18
-26 15 -8 -4 -15 -1 -15 5 0 8 -6 9 -18 2 -12 -6 -23 -5 -36 4 -10 8 -24 11
-32 8 -8 -3 -21 0 -29 7 -12 10 -15 10 -15 0 0 -9 -4 -9 -16 1 -9 8 -44 15
-78 16 -33 1 -63 3 -66 4 -3 1 -9 2 -15 3 -5 0 -20 7 -32 14 -13 7 -23 9 -23
4 0 -10 -30 -9 -47 1 -6 4 -22 3 -35 -2 -14 -5 -31 -6 -38 -1 -7 4 -26 4 -41
0 -17 -5 -31 -5 -34 1 -4 5 -14 5 -25 -1 -13 -7 -21 -7 -25 0 -5 8 -11 8 -20
0 -10 -8 -15 -8 -20 0 -5 8 -10 8 -20 0 -9 -8 -15 -8 -20 0 -4 7 -12 7 -26 0
-12 -7 -19 -7 -19 -1 0 6 -11 6 -29 1 -16 -4 -32 -5 -35 -2 -9 8 -46 10 -46 2
0 -6 -41 -5 -47 0 -8 6 -30 5 -45 -2 -9 -4 -19 -4 -22 1 -7 11 -56 2 -56 -10
0 -5 -16 -8 -35 -6 -19 3 -35 0 -35 -6 0 -5 -6 -4 -14 2 -10 8 -16 9 -21 1 -4
-7 -12 -7 -26 0 -15 8 -19 7 -19 -4 0 -8 -5 -18 -12 -22 -6 -4 -8 -3 -5 3 4 6
0 14 -9 17 -10 4 -13 2 -8 -6 5 -7 2 -9 -7 -6 -8 3 -23 2 -34 -2 -11 -4 -29
-3 -40 3 -18 9 -19 9 -6 -6 12 -15 10 -17 -18 -13 -17 2 -34 0 -36 -4 -3 -4
-21 -11 -40 -14 -19 -4 -35 -12 -35 -19 0 -7 -4 -6 -10 3 -7 12 -10 12 -10 1
0 -8 -6 -11 -16 -7 -10 4 -13 2 -8 -6 5 -7 -1 -9 -19 -6 -20 4 -28 0 -32 -13
-4 -11 -11 -19 -16 -19 -6 0 -7 5 -3 11 4 8 0 8 -15 0 -11 -7 -21 -14 -21 -17
0 -3 4 -2 10 1 6 3 7 -1 4 -10 -6 -14 -8 -14 -19 1 -14 19 -31 3 -19 -18 5
-10 4 -10 -6 -1 -10 9 -16 9 -26 -2 -8 -7 -14 -19 -14 -26 0 -7 -7 -4 -15 7
-11 14 -14 15 -9 3 3 -10 0 -20 -7 -25 -7 -4 -10 -3 -6 3 3 5 0 10 -7 10 -8 0
-11 -8 -8 -21 5 -19 4 -20 -13 -6 -11 9 -16 10 -11 2 4 -7 0 -15 -11 -19 -9
-4 -33 -22 -52 -42 -20 -19 -37 -29 -39 -23 -2 7 -8 10 -13 6 -5 -3 -9 0 -9 5
0 6 -6 11 -14 11 -7 0 -21 10 -30 23 -9 12 -14 15 -10 7 7 -13 6 -13 -11 0
-36 27 -40 31 -60 45 l-20 15 20 -6 c11 -3 3 4 -18 15 -41 21 -144 120 -139
133 1 4 -5 8 -14 8 -9 0 -12 5 -8 12 5 8 2 9 -10 5 -9 -4 -15 -3 -11 2 3 5 2
11 -2 14 -5 2 -3 2 4 1 21 -5 2 24 -20 31 -15 4 -18 8 -9 12 10 4 8 9 -7 19
-11 8 -18 21 -15 29 4 9 0 15 -10 15 -9 0 -16 5 -16 11 0 5 4 8 8 5 5 -3 9 1
9 9 0 14 -11 19 -30 16 -5 -1 -6 8 -2 19 4 14 1 22 -10 26 -13 6 -14 8 -3 15
10 7 10 9 1 9 -7 0 -13 6 -13 14 0 8 -4 16 -9 18 -5 2 -11 17 -13 33 -1 17 -5
32 -8 35 -3 3 -11 15 -18 28 -10 18 -10 22 0 22 7 0 2 9 -11 19 -16 12 -20 20
-12 25 8 5 7 12 -4 23 -9 9 -14 22 -11 29 3 8 1 14 -4 14 -6 0 -10 5 -10 11 0
26 -33 120 -46 134 -20 20 -27 19 -44 -7z m2705 -768 c3 -5 1 -10 -4 -10 -6 0
-11 5 -11 10 0 6 2 10 4 10 3 0 8 -4 11 -10z m369 -296 c3 -8 2 -12 -4 -9 -6
3 -10 10 -10 16 0 14 7 11 14 -7z m843 -2296 c-3 -8 -6 -5 -6 6 -1 11 2 17 5
13 3 -3 4 -12 1 -19z m-4537 -578 c0 -5 -5 -10 -11 -10 -5 0 -7 5 -4 10 3 6 8
10 11 10 2 0 4 -4 4 -10z m4840 -266 c0 -8 -19 -13 -24 -6 -3 5 1 9 9 9 8 0
15 -2 15 -3z m-530 -433 c0 -6 -4 -13 -10 -16 -5 -3 -10 1 -10 9 0 9 5 16 10
16 6 0 10 -4 10 -9z m-580 -1435 c0 -2 -8 -10 -17 -17 -16 -13 -17 -12 -4 4
13 16 21 21 21 13z"/>
<path d="M4800 6386 c0 -2 7 -7 16 -10 8 -3 12 -2 9 4 -6 10 -25 14 -25 6z"/>
<path d="M2643 6373 c4 -3 -1 -12 -11 -20 -15 -13 -15 -13 6 -3 19 9 23 30 5
30 -4 0 -3 -3 0 -7z"/>
<path d="M6160 3326 c0 -2 7 -9 15 -16 13 -11 14 -10 9 4 -5 14 -24 23 -24 12z"/>
<path d="M5019 1103 c-13 -16 -12 -17 4 -4 9 7 17 15 17 17 0 8 -8 3 -21 -13z"/>
<path d="M4985 1081 c-3 -5 -2 -12 3 -15 5 -3 9 1 9 9 0 17 -3 19 -12 6z"/>
<path d="M4880 970 c-9 -6 -10 -10 -3 -10 6 0 15 5 18 10 8 12 4 12 -15 0z"/>
<path d="M4850 935 c-7 -9 -11 -17 -9 -20 3 -2 10 5 17 15 14 24 10 26 -8 5z"/>
</g>
</svg>
